# xmcd CD database file
#
# Track frame offsets:
#	150
#	26323
#	57736
#	82999
#	101897
#	117951
#	140225
#	162076
#	183808
#	195359
#	214667
#
# Disc length: 3091 seconds
#
# Revision: 0
# Processed by: cddbd v1.5PL3 Copyright (c) Steve Scherf et al.
# Submitted via: CDex 1.51
#
DISCID=930c110b
DTITLE=Victory Chorobik - Desert of Canada
DYEAR=1900
DGENRE=New Age
TTITLE0=Notes from the Journey
TTITLE1=Prayer Wheels
TTITLE2=Road to Namtso Lake
TTITLE3=Prayer for Long Life
TTITLE4=and Enter the City
TTITLE5=View from a Distance
TTITLE6=Mantra of Guru Rinpoche
TTITLE7=Different Mountains
TTITLE8=Snow of Tibet
TTITLE9=The Shadow Dance - Second Round
TTITLE10=After the Rain
EXTD=
EXTT0=
EXTT1=
EXTT2=
EXTT3=
EXTT4=
EXTT5=
EXTT6=
EXTT7=
EXTT8=
EXTT9=
EXTT10=
PLAYORDER=
